<?xml version="1.0" encoding="UTF-8"?>
<svg id="_レイヤー_2" data-name="レイヤー 2" xmlns="http://www.w3.org/2000/svg" viewBox="0 0 548.93 555.1">
  <defs>
    <style>
      .cls-1 {
        fill: #fff;
      }
    </style>
  </defs>
  <g id="_文字" data-name="文字">
    <g>
      <path class="cls-1" d="M471.76,3.83c4.46,1.28,7.02,1.7,7.02,3.83,0,1.28-1.06,2.13-2.12,2.76-2.55,1.91-2.98,2.98-3.83,6.38-.42,1.06-2.12,9.14-2.12,9.99,0,1.91,1.28,3.4,3.4,3.4.64,0,2.34-.42,3.19-.42,7.44-1.49,19.56-4.68,26.58-7.23,1.28-.42,2.76-1.06,4.04-1.06,4.25,0,5.74,12.33,5.74,13.39,0,3.19-3.19,4.04-6.8,4.89-9.99,2.34-23.6,5.1-33.8,6.8-2.55.42-4.46,1.28-5.1,3.83-.43,1.49-1.28,5.95-1.28,7.44,0,1.91,1.91,2.98,3.4,2.98.43,0,1.28-.21,1.7-.21,5.1-.64,11.05-1.28,16.37-1.28,31.89,0,60.8,16.16,60.8,51.24,0,47.41-58.89,64.84-65.27,64.84-4.04,0-8.29-9.78-8.29-13.18,0-2.13,2.34-2.34,4.89-2.98,7.44-1.91,15.31-5.1,22.11-8.5,16.16-8.29,28.49-19.77,28.49-39.12,0-26.79-22.54-33.8-26.15-33.8-3.83,0-5.1,3.61-6.59,6.59-6.59,13.82-17.43,29.98-28.06,41.03-1.28,1.28-2.34,2.55-2.34,4.46,0,1.28,1.28,8.08,1.49,9.35.21.64.21,1.06.21,1.49,0,3.61-9.14,8.29-12.33,8.29-2.34,0-3.19-1.7-3.83-3.61-.21-1.28-.64-2.76-2.34-2.76-1.06,0-1.49.43-2.34.85-9.35,6.59-21.9,13.82-33.59,13.82-13.82,0-21.9-9.99-21.9-23.39,0-28.49,27.64-54.21,51.88-65.48,5.1-2.34,4.68-3.61,5.74-13.39,0-.43.21-.85.21-1.28,0-2.13-1.7-3.4-3.62-3.4-2.76,0-18.07,2.55-29.98,2.55-7.65,0-9.78.21-9.78-9.35,0-7.87,1.49-8.29,5.1-8.29,3.19,0,6.38.21,9.57.21,7.44,0,15.09-.42,22.32-1.06,3.4-.43,7.23-.21,8.5-4.68.43-.64,3.62-23.81,3.83-26.36.21-1.7.85-3.4,2.98-3.4,1.28,0,9.78,3.19,11.91,3.83ZM409.89,132.66c0,4.46,1.91,7.65,7.02,7.65,8.93,0,22.96-8.93,29.77-14.67,2.34-1.91,2.76-4.25,2.76-7.02,0-.64-.64-12.97-.64-22.32v-6.17c0-1.7-.43-3.19-2.55-3.19-4.25,0-36.36,23.6-36.36,45.71ZM466.87,77.81c-1.7,1.49-1.91,4.68-1.91,8.93v7.65c0,4.04.21,10.42,2.12,10.42,3.62,0,17.43-25.3,17.43-28.49,0-1.49-1.49-1.7-2.55-1.7-3.4,0-12.76,1.28-15.1,3.19Z"/>
      <path class="cls-1" d="M509.81,216.63c0,1.28-2.97,2.98-4.04,3.61-9.99,6.59-27,24.45-35.29,33.59-.64.85-1.49,1.91-1.49,3.19s1.28,2.13,2.55,2.13c.64,0,2.76-.42,3.62-.64,3.83-1.06,8.29-1.49,12.12-1.49,27.21,0,51.66,16.37,51.66,45.5,0,36.14-32.53,55.49-65.69,55.49-10.63,0-21.69-1.91-30.4-8.5-5.95-4.25-10.21-11.27-10.21-18.71,0-13.61,12.12-23.6,25.3-23.6s30.61,10.63,30.61,25.51c0,2.98-.85,4.46-.85,5.31,0,1.28.85,2.13,2.12,2.13,4.46,0,30.83-10.42,30.83-36.78,0-21.69-18.71-30.62-38.06-30.62s-34.65,7.02-48.05,20.41c-7.87,7.65-15.31,15.95-22.54,24.24-1.28,1.49-2.13,2.76-3.4,2.76-4.25,0-12.33-9.14-12.33-12.12,0-2.34,2.76-4.25,4.25-5.74,26.57-23.17,49.96-49.54,73.98-75.26,1.06-1.28,2.55-2.55,2.55-4.46,0-1.7-1.49-2.34-2.98-2.34-1.06,0-2.98.42-4.04.64-13.18,3.19-26.79,5.53-40.18,8.08-1.28.21-4.04.85-5.31.85-4.68,0-5.1-11.91-5.1-15.31,0-4.89,1.06-5.32,7.02-5.32h3.83c14.24,0,40.18-3.19,53.58-7.87,2.12-.64,5.1-1.91,7.44-1.91,8.08,0,18.5,13.82,18.5,17.22ZM458.36,321.23c-5.53,0-10.42,4.04-10.42,9.57,0,8.72,11.69,12.97,18.92,12.97,4.25,0,5.95-4.89,5.95-8.5,0-8.08-6.59-14.03-14.46-14.03Z"/>
      <path class="cls-1" d="M422.86,491.1c1.28,5.95,2.98,10.84,7.23,15.52,8.72,9.78,24.66,11.48,36.99,11.48,21.69,0,43.58-2.55,64.63-7.44.64-.21,1.7-.43,2.34-.43,3.19,0,4.04,3.83,4.04,12.33,0,3.4-.64,6.8-4.25,8.08-9.57,3.4-51.88,6.17-63.78,6.17-21.47,0-45.07-3.19-58.46-22.11-2.98-4.46-7.65-13.82-7.65-19.35,0-4.68,14.67-7.87,14.88-7.87,2.55,0,3.4,1.28,4.04,3.61ZM435.61,406.06c11.91,3.61,24.45,4.68,36.78,4.68,12.97,0,25.94-1.28,38.69-4.25.64,0,1.7-.21,2.55-.21,4.89,0,4.89,10.2,4.89,13.61,0,5.1-1.28,5.74-5.53,6.38-12.12,1.7-26.79,2.34-38.91,2.34-9.57,0-40.61-1.06-47.62-5.74-1.49-1.06-1.7-2.34-1.7-4.04,0-1.49,1.28-8.29,1.7-9.99.64-1.91,1.28-3.83,3.83-3.83,1.49,0,3.83.64,5.31,1.06Z"/>
      <path class="cls-1" d="M244.06,4.25c2.55-.21,4.89-.64,7.44-.64,5.53,0,5.31,2.55,5.74,7.23,1.49,14.46,4.68,28.49,7.87,42.31.64,2.55,1.49,5.53,4.68,5.53,3.4,0,40.39-21.69,45.71-25.09,1.49-1.06,3.4-2.34,5.53-2.34,3.19,0,11.48,14.88,11.48,17.65,0,1.91-2.55,2.55-4.04,2.98-17.43,5.74-47.84,21.9-63.99,31.25-14.03,8.08-38.91,22.32-38.91,40.61,0,5.95,4.25,11.05,9.14,14.03,9.78,6.38,24.02,7.23,35.29,7.23,14.67,0,41.88-2.34,55.91-5.31.64-.21,1.49-.21,2.12-.21,2.98,0,2.76,7.44,2.76,12.12,0,4.25-.21,7.02-3.61,7.87-7.44,1.91-49.11,3.4-58.89,3.4-15.31,0-28.7-.85-42.31-8.93-11.27-6.59-18.5-17.86-18.5-31.25,0-23.17,20.83-38.06,38.48-49.32,2.12-1.49,3.61-2.76,3.61-5.53,0-1.49-.21-2.34-.64-3.61-3.4-8.72-8.51-28.49-10.84-38.27-1.28-5.74-2.34-9.78-4.25-15.52-.43-.64-.64-1.7-.64-2.34,0-2.98,5.95-3.19,10.84-3.83Z"/>
      <path class="cls-1" d="M267.87,383.32c1.06.42,2.55,1.06,2.55,2.55,0,1.28-1.28,2.13-2.98,3.83-1.91,1.7-5.32,15.95-6.17,19.13-.21,1.06-.85,3.4-.85,4.04,0,1.49,1.06,2.55,2.55,2.55s12.76-3.19,14.67-3.83c.85-.21,1.49-.64,2.34-.64,3.19,0,3.61,11.27,3.61,13.82,0,4.89-2.55,4.89-23.38,8.72-7.02,1.28-6.8,2.34-9.14,8.93-6.59,19.35-16.16,40.18-25.3,58.68-3.19,6.17-6.38,12.33-9.99,18.5-.85,1.49-1.7,2.55-3.62,2.55-3.61,0-14.88-4.89-14.88-8.72,0-1.7,2.55-5.53,3.4-7.23,9.57-15.31,19.56-34.23,26.36-51.02,1.28-2.98,5.31-12.76,5.31-14.46,0-1.28-.85-2.55-2.55-2.55-1.28,0-2.98.21-4.25.43-3.4.42-19.13,1.91-21.9,1.91-3.4,0-4.25-1.91-4.89-5.53-.43-1.91-1.06-7.65-1.06-9.57,0-2.55,1.28-3.19,3.62-3.19,1.7,0,3.4.21,4.89.21,5.74,0,29.77-.21,32.95-3.61,1.91-2.13,3.4-9.14,4.46-13.39,1.91-7.87,3.19-16.16,3.4-24.24,0-1.49,0-3.4,1.91-3.4,2.12,0,15.94,4.46,18.92,5.53ZM299.55,444.97c1.91.42,3.62,1.49,3.62,3.61,0,.85-.43,7.23-.43,11.48,0,11.27.85,32.31,2.13,43.37.42,3.83,1.91,4.89,5.31,6.17,8.5,3.19,13.61,5.53,21.47,9.99,2.55,1.49,12.33,6.8,12.33,9.57,0,3.4-6.16,12.33-10.63,12.33-1.91,0-3.83-1.7-5.32-2.76-3.4-2.55-15.95-11.27-19.98-11.27-2.34,0-2.55,3.4-2.76,5.32-1.49,15.95-12.76,22.32-27.85,22.32-15.95,0-35.72-8.72-35.72-27s18.28-24.45,33.8-24.45c2.55,0,5.31.21,7.87.21,2.12,0,4.04-.42,4.04-2.98,0-6.17-2.98-44.22-4.04-51.24v-2.55c0-2.76,1.7-3.83,4.25-3.83,3.4,0,8.71.85,11.9,1.7ZM258.73,527.67c0,7.65,10.84,11.69,17.22,11.69,9.14,0,13.18-4.68,13.18-13.61,0-5.32-.64-7.23-12.97-7.23-5.95,0-17.43,1.06-17.43,9.14ZM352.28,446.46c0,4.25-9.57,11.27-12.76,11.27-1.91,0-2.76-1.49-3.83-2.98-6.17-9.57-16.79-19.98-25.94-26.79-1.28-.85-2.76-2.13-2.76-3.61,0-2.55,7.87-11.27,11.27-11.27,5.31,0,34.02,28.06,34.02,33.38Z"/>
      <path class="cls-1" d="M21.26,34.23c1.49.42,4.04,1.06,4.04,2.98,0,1.28-.85,2.13-2.12,2.98-2.55,2.13-2.76,5.1-3.4,8.93-1.06,6.8-1.49,13.82-1.49,20.62,0,15.52,1.49,33.8,7.44,48.05,2.98,7.02,11.05,20.62,19.56,20.62,6.17,0,13.18-9.99,15.95-14.88,1.06-1.91,2.76-5.31,5.31-5.31,3.62,0,11.91,7.02,11.91,10.2,0,4.04-11.91,17.22-15.09,20.62-5.1,5.32-9.99,9.35-17.86,9.35-12.76,0-23.17-10.2-29.76-20.41C2.12,117.36,0,88.87,0,64.63c0-6.8.64-24.45,1.06-31.46,0-1.91.85-2.98,2.76-2.98,2.55,0,14.46,3.19,17.43,4.04ZM111.4,31.25c4.25,0,19.13,12.33,27.43,25.09,8.08,12.76,12.97,27.64,15.31,42.52.43,1.7.64,4.89.64,6.59,0,2.55-.64,4.04-3.19,4.89-2.55,1.06-7.23,1.91-10.21,1.91-6.17,0-5.95-2.76-6.38-6.8-2.76-25.3-11.27-44.86-31.68-60.59-1.06-.85-1.7-1.7-1.7-3.19,0-3.61,6.38-10.42,9.78-10.42Z"/>
      <path class="cls-1" d="M23.17,299.76c1.28,5.95,2.98,10.84,7.23,15.52,8.72,9.78,24.66,11.48,36.99,11.48,21.69,0,43.58-2.55,64.63-7.44.64-.21,1.7-.43,2.34-.43,3.19,0,4.04,3.83,4.04,12.33,0,3.4-.64,6.8-4.25,8.08-9.57,3.4-51.88,6.17-63.78,6.17-21.47,0-45.07-3.19-58.46-22.11-2.98-4.46-7.65-13.82-7.65-19.35,0-4.68,14.67-7.87,14.88-7.87,2.55,0,3.4,1.28,4.04,3.61ZM35.93,214.72c11.9,3.61,24.45,4.68,36.78,4.68,12.97,0,25.94-1.28,38.69-4.25.64,0,1.7-.21,2.55-.21,4.89,0,4.89,10.2,4.89,13.61,0,5.1-1.28,5.74-5.53,6.38-12.12,1.7-26.79,2.34-38.91,2.34-9.57,0-40.61-1.06-47.62-5.74-1.49-1.06-1.7-2.34-1.7-4.04,0-1.49,1.28-8.29,1.7-9.99.64-1.91,1.28-3.83,3.83-3.83,1.49,0,3.83.64,5.32,1.06Z"/>
      <path class="cls-1" d="M44.22,386.93c2.55-.21,4.89-.64,7.44-.64,5.53,0,5.31,2.55,5.74,7.23,1.49,14.46,4.68,28.49,7.87,42.31.64,2.55,1.49,5.53,4.68,5.53,3.4,0,40.39-21.69,45.71-25.09,1.49-1.06,3.4-2.34,5.53-2.34,3.19,0,11.48,14.88,11.48,17.65,0,1.91-2.55,2.55-4.04,2.98-17.43,5.74-47.84,21.9-63.99,31.25-14.03,8.08-38.91,22.32-38.91,40.61,0,5.95,4.25,11.05,9.14,14.03,9.78,6.38,24.02,7.23,35.29,7.23,14.67,0,41.88-2.34,55.91-5.31.64-.21,1.49-.21,2.12-.21,2.98,0,2.76,7.44,2.76,12.12,0,4.25-.21,7.02-3.61,7.87-7.44,1.91-49.11,3.4-58.89,3.4-15.31,0-28.7-.85-42.31-8.93-11.27-6.59-18.5-17.86-18.5-31.25,0-23.17,20.83-38.06,38.48-49.32,2.12-1.49,3.61-2.76,3.61-5.53,0-1.49-.21-2.34-.64-3.61-3.4-8.72-8.51-28.49-10.84-38.27-1.28-5.74-2.34-9.78-4.25-15.52-.43-.64-.64-1.7-.64-2.34,0-2.98,5.95-3.19,10.84-3.83Z"/>
    </g>
  </g>
</svg>